<?xml version="1.0" encoding="UTF-8"?>
<svg id="Layer_1" data-name="Layer 1" xmlns="http://www.w3.org/2000/svg" viewBox="0 0 523.64 69.94">
  <defs>
    <style>
      .cls-1 {
        fill: #fff;
      }
    </style>
  </defs>
  <path class="cls-1" d="M513.39,27.27h3.35v-1.12h-.92l.3-4.11c.02-.29-.03-.76-.03-.76h.05s.08.45.18.72l1.56,3.75h1.29l1.56-3.75c.1-.27.19-.72.19-.72h.04s-.06.47-.04.76l.3,4.11h-.91v1.12h3.34v-1.12h-.96l-.47-5.89h.98v-1.13h-2.65l-1.8,4.6c-.15.4-.21.68-.21.68h-.02s-.06-.28-.2-.68l-1.81-4.6h-2.65v1.13h.99l-.48,5.89h-.96v1.12ZM506.66,24.64v.93c0,1.23,1.44,1.83,2.8,1.83,1.54,0,2.93-.77,2.93-2.43,0-1.53-1.21-2.01-2.43-2.44-.85-.32-1.61-.59-1.61-1.33,0-.62.55-.89,1.22-.89.61,0,1.22.22,1.22.63v.55h1.36v-1.07c0-.94-1.29-1.43-2.58-1.43-1.4,0-2.73.63-2.73,2.27,0,1.46,1.07,1.95,2.16,2.36.94.37,1.87.63,1.87,1.46,0,.65-.59,1.01-1.41,1.01-.77,0-1.44-.31-1.44-.84v-.61h-1.36Z"/>
  <path class="cls-1" d="M47.73,32.7v-.19c5.29-2.93,8.03-8.6,8.03-14.46,0-7.84-4.73-13.71-11.81-16.16-3.78-1.23-7.09-1.42-12.38-1.42H0v12.29h7.56v43H0v12.29h33.36c3.69,0,6.52-.09,10.11-.95,7.94-1.98,15.03-8.7,15.03-18.9,0-6.43-2.74-13.04-10.77-15.5ZM24.48,13.7h6.99c1.8,0,2.93.09,4.16.57,2.17.95,3.12,3.5,3.12,5.86,0,3.59-1.8,6.52-5.95,6.52h-8.32v-12.95ZM37.33,54.25c-.85.38-1.89.57-3.12.57h-9.73v-14.93h9.83c4.82,0,7.09,3.02,7.09,6.99,0,3.12-1.42,6.24-4.06,7.37Z"/>
  <path class="cls-1" d="M64.15,12.29h-6.62V.47h22.97v48.67c0,4.63.85,6.24,4.54,6.24,1.04,0,1.98-.09,1.98-.09v12.95s-2.27.28-4.92.28c-8.69,0-17.96-2.08-17.96-18.43V12.29Z"/>
  <path class="cls-1" d="M90.7,31.19h-6.62v-11.81h22.97v29.02c0,4.54,1.8,6.43,5.39,6.43,6.43,0,10.11-7.47,10.11-14.84v-8.79h-6.62v-11.81h22.97v34.78c0,1.32.76,2.08,2.08,2.08h4.06v11.81h-15.03c-4.44,0-6.71-2.17-6.71-5.48v-1.32c0-.66.09-1.42.09-1.42h-.19s-4.06,9.36-16.54,9.36c-8.6,0-15.97-4.54-15.97-18.24v-19.75Z"/>
  <path class="cls-1" d="M173.13,55.67c-5.2,0-10.11-2.74-11.34-8.98h30.91s.38-3.31.38-4.91c0-13.52-8.13-23.53-22.68-23.53-15.69,0-25.33,11.15-25.33,25.42,0,12.95,9.36,25.52,26.75,25.52,13.14,0,20.98-6.8,20.98-6.8l-5.95-11.34s-6.52,4.63-13.7,4.63ZM170.01,30.53c3.59,0,6.14,3.31,6.14,7.18h-13.99c.85-3.78,3.12-7.18,7.84-7.18Z"/>
  <path class="cls-1" d="M240.41,18.43l-.09,1.89c-2.93-2.93-6.99-3.21-9.64-3.21-10.02,0-16.26,8.79-16.26,19.09,0,9.36,4.25,19,16.82,19,.76,0,8.32.19,11.34-4.35,1.13,2.27,3.21,3.78,8.03,3.78,11.44,0,17.58-10.96,17.58-21.17,0-21.45-15.31-33.46-34.97-33.46s-34.97,14.27-34.97,34.97c0,18.62,11.53,34.97,34.97,34.97,7.56,0,12.57-1.42,18.33-5.1l-3.59-6.62c-4.16,2.93-8.7,4.54-14.74,4.54-16.35,0-27.22-11.62-27.22-27.79,0-14.56,10.21-27.79,27.22-27.79,13.14,0,27.22,7.66,27.22,26.27,0,6.33-2.36,13.23-8.32,13.23-1.8,0-2.36-.57-2.36-4.25v-24.01h-9.36ZM232.19,47.26c-7.18,0-8.03-7.94-8.03-11.06,0-7.66,3.59-11.06,8.13-11.06,4.25,0,7.84,2.74,7.84,11.06,0,10.96-7.56,11.06-7.94,11.06Z"/>
  <path class="cls-1" d="M268.06.47h29.96v12.29h-7.84l6.24,29.96c.66,3.31.85,7.09.85,7.09h.38s.28-3.78,1.13-7.09L309.17.47h13.04l10.4,42.25c.85,3.31,1.13,7.09,1.13,7.09h.38s.19-3.78.85-7.09l6.24-29.96h-7.84V.47h29.96v12.29h-5.67l-13.42,55.29h-18.62l-8.6-34.59c-.85-3.31-1.13-7.47-1.13-7.47h-.38s-.28,4.16-1.13,7.47l-8.6,34.59h-18.62l-13.42-55.29h-5.67V.47Z"/>
  <path class="cls-1" d="M383.03,18.24c-15.22,0-27.5,10.3-27.5,25.61s12.29,25.33,27.6,25.33,27.6-10.11,27.6-25.33-12.29-25.61-27.69-25.61ZM383.13,55.57c-5.96,0-11.06-4.44-11.06-11.72s5.1-12,11.06-12,11.06,4.63,11.06,12-5.1,11.72-11.06,11.72Z"/>
  <path class="cls-1" d="M410.78,56.23h6.62v-22.97c0-1.32-.76-2.08-2.08-2.08h-4.54v-11.81h15.41c4.44,0,6.9,1.79,6.9,6.24v2.55c0,1.51-.19,2.46-.19,2.46h.19c2.08-6.62,8.22-12.1,15.5-12.1.95,0,1.89.19,1.89.19v16.07s-1.32-.28-3.31-.28c-9.07,0-13.42,5.76-13.42,14.65v7.09h6.62v11.81h-29.58v-11.81Z"/>
  <path class="cls-1" d="M450.16,56.23h6.14V12.29h-6.62V.47h22.97v36.96h5.58l5.1-6.24h-4.63v-11.81h25.33v11.81h-5.95l-8.41,10.21v.19s2.08,1.04,3.88,4.35l4.82,8.7c.76,1.32,1.7,1.61,3.59,1.61h2.36v11.81h-11.91c-3.5,0-5.29-.57-6.99-3.69l-7.47-13.8c-.85-1.61-2.65-1.61-3.88-1.61h-1.42v7.28h3.5v11.81h-25.99v-11.81Z"/>
</svg>